<svg width="512" height="512" viewBox="0 0 512 512" fill="none" xmlns="http://www.w3.org/2000/svg">
  <defs>
    <linearGradient id="bg" x1="90" y1="42" x2="436" y2="470" gradientUnits="userSpaceOnUse">
      <stop stop-color="#E6F7FF"/>
      <stop offset="0.6" stop-color="#CDEEFF"/>
      <stop offset="1" stop-color="#92D6FF"/>
    </linearGradient>
    <linearGradient id="glass" x1="150" y1="120" x2="382" y2="390" gradientUnits="userSpaceOnUse">
      <stop stop-color="#FFFFFF" stop-opacity="0.9"/>
      <stop offset="1" stop-color="#FFFFFF" stop-opacity="0.35"/>
    </linearGradient>
    <linearGradient id="lock" x1="204" y1="210" x2="308" y2="330" gradientUnits="userSpaceOnUse">
      <stop stop-color="#1890FF"/>
      <stop offset="1" stop-color="#0F5DB8"/>
    </linearGradient>
    <filter id="shadow" x="76" y="82" width="360" height="380" filterUnits="userSpaceOnUse" color-interpolation-filters="sRGB">
      <feDropShadow dx="0" dy="16" stdDeviation="18" flood-color="#0F5DB8" flood-opacity="0.18"/>
    </filter>
  </defs>

  <rect x="56" y="56" width="400" height="400" rx="32" fill="url(#bg)"/>

  <g filter="url(#shadow)">
    <rect x="118" y="110" width="276" height="292" rx="28" fill="url(#glass)" stroke="#FFFFFF" stroke-opacity="0.55"/>
  </g>

  <path d="M206 248C206 223 226 203 251 203H261C286 203 306 223 306 248V264H206V248Z" fill="#1890FF" opacity="0.18"/>
  <rect x="196" y="264" width="120" height="118" rx="20" fill="url(#lock)"/>
  <path d="M256 300C247 300 240 307 240 316C240 324 245 331 252 333V346C252 348 254 350 256 350C258 350 260 348 260 346V333C267 331 272 324 272 316C272 307 265 300 256 300Z" fill="#FFFFFF" opacity="0.92"/>

  <path d="M184 230C198 210 220 196 246 192" stroke="#1890FF" stroke-width="10" stroke-linecap="round" opacity="0.35"/>
  <path d="M328 230C314 210 292 196 266 192" stroke="#1890FF" stroke-width="10" stroke-linecap="round" opacity="0.35"/>

  <path d="M360 196L246 236L298 256L318 310L360 196Z" fill="#1890FF" opacity="0.32"/>
  <path d="M298 256L360 196" stroke="#0F5DB8" stroke-width="6" stroke-linecap="round" opacity="0.55"/>

  <g opacity="0.45">
    <circle cx="156" cy="354" r="10" fill="#1890FF"/>
    <circle cx="188" cy="382" r="6" fill="#1890FF"/>
    <circle cx="388" cy="148" r="7" fill="#1890FF"/>
  </g>

  <path d="M168 416H344" stroke="#1890FF" stroke-width="10" stroke-linecap="round" opacity="0.22"/>
</svg>
